<?xml version="1.0" encoding="UTF-8" standalone="no"?>
<svg
   xmlns:dc="http://purl.org/dc/elements/1.1/"
   xmlns:cc="http://creativecommons.org/ns#"
   xmlns:rdf="http://www.w3.org/1999/02/22-rdf-syntax-ns#"
   xmlns:svg="http://www.w3.org/2000/svg"
   xmlns="http://www.w3.org/2000/svg"
   xmlns:sodipodi="http://sodipodi.sourceforge.net/DTD/sodipodi-0.dtd"
   xmlns:inkscape="http://www.inkscape.org/namespaces/inkscape"
   width="210mm"
   height="297mm"
   viewBox="0 0 210 297"
   version="1.1"
   id="svg857"
   inkscape:version="1.0.1 (3bc2e813f5, 2020-09-07)"
   sodipodi:docname="logo.svg">
  <defs
     id="defs851" />
  <sodipodi:namedview
     id="base"
     pagecolor="#ffffff"
     bordercolor="#666666"
     borderopacity="1.0"
     inkscape:pageopacity="0.0"
     inkscape:pageshadow="2"
     inkscape:zoom="0.49497475"
     inkscape:cx="400"
     inkscape:cy="560"
     inkscape:document-units="mm"
     inkscape:current-layer="layer1"
     inkscape:document-rotation="0"
     showgrid="false"
     inkscape:window-width="1513"
     inkscape:window-height="968"
     inkscape:window-x="60"
     inkscape:window-y="112"
     inkscape:window-maximized="0" />
  <metadata
     id="metadata854">
    <rdf:RDF>
      <cc:Work
         rdf:about="">
        <dc:format>image/svg+xml</dc:format>
        <dc:type
           rdf:resource="http://purl.org/dc/dcmitype/StillImage" />
        <dc:title></dc:title>
      </cc:Work>
    </rdf:RDF>
  </metadata>
  <g
     inkscape:label="Layer 1"
     inkscape:groupmode="layer"
     id="layer1">
    <rect
       style="opacity:1;fill:#eeeeee;fill-opacity:1;fill-rule:evenodd;stroke:none;stroke-width:0.519488;stroke-linecap:round;stroke-linejoin:miter;stroke-miterlimit:4;stroke-dasharray:none;stroke-dashoffset:0;stroke-opacity:1"
       id="rect905-4"
       width="196.27226"
       height="196.27226"
       x="6.6649194"
       y="6.0177412"
       inkscape:export-xdpi="20.705931"
       inkscape:export-ydpi="20.705931" />
    <path
       inkscape:connector-curvature="0"
       id="path868-2"
       d="m 84.70823,112.75805 c -11.853308,3.11429 -26.658987,0.3276 -36.126305,-6.79963 C 43.328388,102.00342 35.990433,92.551651 33.775149,86.886261 29.275434,75.378601 30.078199,61.7236 35.92556,50.30815 c 2.331358,-4.551321 3.340664,-5.717519 9.958666,-11.50656 6.123233,-5.355601 8.152198,-6.74468 12.037927,-8.23789 11.717862,-4.502831 26.316857,-3.55132 37.206067,2.424899 5.33276,2.926741 13.76035,11.42129 17.00554,17.1406 5.84808,10.306671 6.70401,25.347982 2.08851,36.701262 -1.32706,3.26438 -2.72877,5.98857 -3.1149,6.05375 -0.38617,0.0652 -1.66396,-0.63506 -2.83962,-1.5561 -1.17567,-0.921 -3.28381,-1.88731 -4.68478,-2.14727 -2.46405,-0.45726 -2.75573,-0.28953 -8.93049,5.13489 -6.17479,5.42445 -6.37863,5.692169 -6.24271,8.194509 0.0773,1.4228 0.7639,3.63789 1.52579,4.92239 0.76185,1.28456 1.29167,2.6419 1.17729,3.01642 -0.11438,0.37454 -2.99646,1.41358 -6.40462,2.309 z M 59.171471,89.879691 c 0.325763,-3.39004 -2.369013,-6.38241 -5.956787,-6.61445 -5.686203,-0.36783 -8.498665,6.39063 -4.536324,10.90107 0.567804,0.64635 2.252486,1.25409 3.743781,1.35056 3.467441,0.22431 6.423194,-2.2444 6.749354,-5.63701 z M 101.2843,52.592081 c 0.36783,-5.686193 -6.39064,-8.498671 -10.90107,-4.536321 -1.85221,1.627121 -1.77432,6.172491 0.14317,8.355219 3.70106,4.213 10.39199,1.837811 10.7579,-3.818898 z m -49.304003,16.77759 c 0.235516,-3.640441 -0.457348,-4.74538 -3.793554,-6.049932 -2.52504,-0.98737 -4.07126,-0.66552 -6.328243,1.317212 -2.18395,1.91856 -2.710751,4.05254 -1.647486,6.67367 1.153991,2.84485 3.578749,4.29521 6.620261,3.95995 3.231364,-0.35619 4.91517,-2.28587 5.149022,-5.9009 z M 81.90072,43.57326 c 0.22222,-3.43526 -2.522067,-6.818831 -5.697046,-7.024211 -3.378192,-0.218541 -6.867703,3.19214 -6.686055,6.53501 0.197294,3.630811 2.082924,5.45461 5.894485,5.701152 3.984749,0.257788 6.252616,-1.563902 6.488616,-5.211951 z m -20.178327,6.43785 c 0.456189,-4.176281 -3.492138,-7.16248 -8.050792,-6.08897 -6.329463,1.490501 -5.218642,11.90948 1.281755,12.02259 4.376034,0.0761 6.296441,-1.607251 6.768595,-5.93412 z"
       style="fill:#347ab4;fill-opacity:1;stroke-width:0.782743"
       sodipodi:nodetypes="cscccccsccccsccccccsscccsscccscscssscscsccc"
       inkscape:export-xdpi="20.705931"
       inkscape:export-ydpi="20.705931" />
    <path
       inkscape:connector-curvature="0"
       id="path868-0-2"
       d="m 119.63134,92.929101 c 11.64179,-3.82993 26.58963,-1.94954 36.47319,4.58826 5.48451,3.627909 13.38413,12.615539 15.94013,18.135609 5.19176,11.21244 5.22157,24.89099 0.0799,36.64116 -2.05004,4.68479 -2.98649,5.91025 -9.23988,12.09135 -5.78592,5.71835 -7.72658,7.22835 -11.51423,8.95528 -11.42206,5.20768 -26.05192,5.1465 -37.28467,-0.15588 -5.501,-2.59675 -14.42999,-10.56261 -18.01725,-16.0738 -6.46454,-9.93164 -8.23436,-24.89296 -4.31842,-36.50612 1.1259,-3.3391 2.35923,-6.14355 2.74067,-6.23211 0.3815,-0.0885 1.69954,0.53261 2.92906,1.38039 1.22956,0.84774 3.39259,1.68393 4.80679,1.85815 2.48731,0.30642 2.76824,0.12128 8.60142,-5.66891 5.83317,-5.79021 6.02035,-6.06984 5.73237,-8.55926 -0.16376,-1.41547 -0.9839,-3.584649 -1.82257,-4.820409 -0.83862,-1.23581 -1.45007,-2.55838 -1.35869,-2.93917 0.0914,-0.38081 2.90487,-1.59334 6.25222,-2.69454 z m 26.88188,21.281699 c -0.11883,3.40358 2.75309,6.22639 6.34833,6.23964 5.69806,0.0211 8.09396,-6.89606 3.86443,-11.15697 -0.60608,-0.61058 -2.32463,-1.11467 -3.81904,-1.12019 -3.47467,-0.0129 -6.27467,2.63118 -6.39374,6.03735 z m -39.76528,39.78162 c -0.0211,5.69805 6.89604,8.09396 11.15697,3.86443 1.74972,-1.73684 1.39533,-6.26904 -0.65145,-8.33101 -3.95061,-3.97995 -10.48459,-1.20191 -10.50552,4.46658 z m 48.19145,-19.74731 c -0.0135,3.64801 0.74531,4.70874 4.15475,5.80782 2.58046,0.83185 4.10421,0.4165 6.23634,-1.69992 2.06312,-2.04792 2.45905,-4.21003 1.23823,-6.76158 -1.325,-2.76934 -3.83352,-4.06942 -6.849,-3.54967 -3.2037,0.5522 -4.76692,2.58078 -4.78032,6.20335 z m -28.29488,27.56966 c -0.0127,3.4424 2.93239,6.65267 6.114,6.66444 3.38523,0.0125 6.66068,-3.60422 6.27591,-6.92985 -0.41793,-3.61207 -2.41105,-5.31772 -6.23055,-5.33181 -3.99305,-0.0148 -6.14584,1.94156 -6.15936,5.59722 z m 19.74909,-7.65407 c -0.20116,4.19632 3.92159,6.93667 8.40646,5.5877 6.227,-1.87299 4.4841,-12.20502 -2.01111,-11.92229 -4.37256,0.19034 -6.18697,1.98749 -6.39489,6.33508 z"
       style="fill:#ffca1d;fill-opacity:1;stroke-width:0.782743"
       sodipodi:nodetypes="cscccccsccccsccccccsscccsscccscscssscscsccc"
       inkscape:export-xdpi="20.705931"
       inkscape:export-ydpi="20.705931" />
  </g>
</svg>
